<?xml version="1.0" encoding="utf-8"?>
<!-- Generator: Adobe Illustrator 27.2.0, SVG Export Plug-In . SVG Version: 6.00 Build 0)  -->
<svg version="1.1" id="Layer_1" xmlns="http://www.w3.org/2000/svg" xmlns:xlink="http://www.w3.org/1999/xlink" x="0px" y="0px"
	 viewBox="0 0 966 400" style="enable-background:new 0 0 966 400;" xml:space="preserve">
<style type="text/css">
	.st0{fill:#FFFFFF;}
</style>
<path class="st0" d="M237.6,212.5c-1.5,0-3,0.6-4.1,1.7l-21.7,21.7c-2.2,2.2-2.2,5.9,0,8.1l11.1,11.1c1.1,1.1,2.5,1.7,4.1,1.7
	c1.5,0,3-0.6,4.1-1.7l21.7-21.7c1.1-1.1,1.7-2.5,1.7-4.1c0-1.5-0.6-3-1.7-4.1l-11.1-11.1C240.6,213.1,239.1,212.5,237.6,212.5z
	 M227,266.9c-4.2,0-8.2-1.6-11.2-4.6l-11.1-11.1c-6.2-6.2-6.2-16.2,0-22.4l21.7-21.7c3-3,7-4.6,11.2-4.6c4.2,0,8.2,1.6,11.2,4.6
	l11.1,11.1c3,3,4.6,7,4.6,11.2c0,4.2-1.6,8.2-4.6,11.2l-21.7,21.7C235.2,265.2,231.2,266.9,227,266.9z"/>
<path class="st0" d="M160.9,212.5c-1.5,0-3,0.6-4.1,1.7l-11.1,11.1c-1.1,1.1-1.7,2.5-1.7,4.1c0,1.5,0.6,3,1.7,4.1l21.7,21.7
	c1.1,1.1,2.5,1.7,4.1,1.7c1.5,0,3-0.6,4.1-1.7l11.1-11.1c1.1-1.1,1.7-2.5,1.7-4.1c0-1.5-0.6-3-1.7-4.1L165,214.2
	C163.9,213.1,162.4,212.5,160.9,212.5z M171.5,266.9c-4.2,0-8.2-1.6-11.2-4.6l-21.7-21.7c-3-3-4.6-7-4.6-11.2s1.6-8.2,4.6-11.2
	l11.1-11.1c3-3,7-4.6,11.2-4.6s8.2,1.6,11.2,4.6l21.7,21.7c3,3,4.6,7,4.6,11.2c0,4.2-1.6,8.2-4.6,11.2l-11.1,11.1
	C179.7,265.2,175.8,266.9,171.5,266.9z"/>
<path class="st0" d="M171.5,146.4c-1.5,0-3,0.6-4.1,1.7l-21.7,21.7c-1.1,1.1-1.7,2.5-1.7,4.1c0,1.5,0.6,3,1.7,4.1l11.1,11.1
	c1.1,1.1,2.5,1.7,4.1,1.7c1.5,0,3-0.6,4.1-1.7l21.7-21.7c2.2-2.2,2.2-5.9,0-8.1l-11.1-11.1C174.5,147,173.1,146.4,171.5,146.4z
	 M160.9,200.8c-4.2,0-8.2-1.6-11.2-4.6l-11.1-11.1c-3-3-4.6-7-4.6-11.2c0-4.2,1.6-8.2,4.6-11.2l21.7-21.7c3-3,7-4.6,11.2-4.6
	s8.2,1.6,11.2,4.6l11.1,11.1c6.2,6.2,6.2,16.2,0,22.4l-21.7,21.7C169.1,199.2,165.1,200.8,160.9,200.8z"/>
<path class="st0" d="M227,146.4c-1.5,0-3,0.6-4.1,1.7l-11.1,11.1c-1.1,1.1-1.7,2.5-1.7,4.1c0,1.5,0.6,3,1.7,4.1l21.7,21.7
	c1.1,1.1,2.5,1.7,4.1,1.7c1.5,0,3-0.6,4.1-1.7l11.1-11.1c1.1-1.1,1.7-2.5,1.7-4.1c0-1.5-0.6-3-1.7-4.1L231,148.1
	C229.9,147,228.5,146.4,227,146.4z M237.6,200.8c-4.2,0-8.2-1.6-11.2-4.6l-21.7-21.7c-3-3-4.6-7-4.6-11.2c0-4.2,1.6-8.2,4.6-11.2
	l11.1-11.1c3-3,7-4.6,11.2-4.6c4.2,0,8.2,1.6,11.2,4.6l21.7,21.7c3,3,4.6,7,4.6,11.2c0,4.2-1.6,8.2-4.6,11.2l-11.1,11.1
	C245.8,199.2,241.8,200.8,237.6,200.8z"/>
<path class="st0" d="M172.4,168.3c-3.5,0-6.4,2.9-6.4,6.4v53.8c0,3.5,2.9,6.4,6.4,6.4h53.8c3.5,0,6.4-2.9,6.4-6.4v-53.8
	c0-3.5-2.9-6.4-6.4-6.4H172.4z M226.1,245h-53.8c-9.1,0-16.5-7.4-16.5-16.5v-53.8c0-9.1,7.4-16.5,16.5-16.5h53.8
	c9.1,0,16.5,7.4,16.5,16.5v53.8C242.6,237.6,235.2,245,226.1,245z"/>
<path class="st0" d="M313,147.1h17.4l30.2,73.8h1.1l30.2-73.8h17.4V242h-13.6v-68.7h-0.9l-28,68.5h-11.3l-28-68.6h-0.9V242H313
	V147.1z M441.6,243.6c-4.5,0-8.6-0.8-12.2-2.5c-3.6-1.7-6.5-4.2-8.7-7.4c-2.1-3.2-3.2-7.2-3.2-11.8c0-4,0.8-7.3,2.3-9.9
	c1.5-2.6,3.6-4.6,6.3-6.2c2.6-1.5,5.6-2.7,8.8-3.4c3.2-0.8,6.6-1.4,9.9-1.8c4.3-0.5,7.7-0.9,10.4-1.2c2.7-0.3,4.6-0.9,5.8-1.6
	c1.2-0.7,1.8-1.9,1.8-3.6v-0.3c0-4-1.1-7.2-3.4-9.4c-2.3-2.2-5.6-3.3-10.1-3.3c-4.7,0-8.3,1-11,3.1c-2.7,2-4.5,4.3-5.5,6.8l-13-3
	c1.5-4.3,3.8-7.8,6.8-10.5c3-2.7,6.4-4.6,10.3-5.8c3.9-1.2,8-1.9,12.3-1.9c2.8,0,5.9,0.3,9,1c3.2,0.6,6.2,1.9,9,3.6
	c2.8,1.8,5.1,4.3,6.9,7.6c1.8,3.2,2.7,7.5,2.7,12.7V242h-13.5v-9.7h-0.6c-0.9,1.8-2.2,3.6-4,5.3c-1.8,1.7-4.1,3.2-6.9,4.3
	C448.9,243,445.5,243.6,441.6,243.6z M444.6,232.5c3.8,0,7.1-0.8,9.8-2.3c2.8-1.5,4.8-3.5,6.3-5.9c1.5-2.5,2.2-5.1,2.2-7.9v-9.2
	c-0.5,0.5-1.5,1-2.9,1.4c-1.4,0.4-3,0.8-4.8,1.1c-1.8,0.3-3.5,0.5-5.2,0.8c-1.7,0.2-3.1,0.4-4.3,0.6c-2.7,0.3-5.1,0.9-7.4,1.7
	c-2.2,0.8-4,2-5.3,3.5c-1.3,1.5-1.9,3.5-1.9,5.9c0,3.4,1.3,6,3.8,7.8C437.4,231.6,440.7,232.5,444.6,232.5z M487,242v-71.2h13.9V242
	H487z M494,159.8c-2.4,0-4.5-0.8-6.2-2.4c-1.7-1.6-2.5-3.6-2.5-5.8c0-2.3,0.9-4.2,2.5-5.8c1.7-1.6,3.8-2.5,6.2-2.5s4.5,0.8,6.2,2.5
	c1.7,1.6,2.6,3.6,2.6,5.8c0,2.3-0.9,4.2-2.6,5.8C498.5,159,496.4,159.8,494,159.8z M525.2,147.1V242h-13.9v-94.9H525.2z
	 M565.7,243.4c-6.9,0-12.8-1.6-17.8-4.7c-4.9-3.2-8.7-7.5-11.4-13c-2.7-5.5-4-11.9-4-19c0-7.2,1.4-13.6,4.1-19.1
	c2.7-5.6,6.5-9.9,11.5-13c4.9-3.1,10.8-4.7,17.5-4.7c5.4,0,10.2,1,14.5,3c4.2,2,7.6,4.8,10.2,8.3c2.6,3.6,4.2,7.8,4.7,12.6h-13.5
	c-0.7-3.3-2.4-6.2-5.1-8.6c-2.6-2.4-6.1-3.6-10.6-3.6c-3.9,0-7.2,1-10.2,3.1c-2.9,2-5.1,4.9-6.7,8.6c-1.6,3.7-2.4,8.1-2.4,13.2
	c0,5.2,0.8,9.7,2.4,13.4c1.6,3.8,3.8,6.7,6.7,8.8c2.9,2.1,6.3,3.1,10.2,3.1c2.6,0,5-0.5,7.1-1.4c2.2-1,4-2.4,5.4-4.2
	c1.5-1.8,2.5-4,3.1-6.6h13.5c-0.5,4.6-2,8.7-4.5,12.3c-2.5,3.6-5.9,6.5-10.1,8.5C576.2,242.4,571.3,243.4,565.7,243.4z M615.4,199.7
	V242h-13.9v-94.9h13.7v35.3h0.9c1.7-3.8,4.2-6.9,7.6-9.1c3.4-2.3,7.9-3.4,13.4-3.4c4.9,0,9.1,1,12.8,3c3.7,2,6.5,5,8.5,9
	c2,4,3.1,8.9,3.1,14.8V242h-13.9v-43.6c0-5.2-1.3-9.3-4-12.1c-2.7-2.9-6.4-4.4-11.2-4.4c-3.3,0-6.2,0.7-8.8,2.1
	c-2.6,1.4-4.6,3.4-6.1,6.1C616.2,192.8,615.4,196,615.4,199.7z M692.6,243.6c-4.5,0-8.6-0.8-12.2-2.5c-3.6-1.7-6.5-4.2-8.7-7.4
	c-2.1-3.2-3.2-7.2-3.2-11.8c0-4,0.8-7.3,2.3-9.9c1.5-2.6,3.6-4.6,6.3-6.2c2.6-1.5,5.6-2.7,8.8-3.4c3.2-0.8,6.5-1.4,9.9-1.8
	c4.3-0.5,7.7-0.9,10.4-1.2c2.7-0.3,4.6-0.9,5.8-1.6c1.2-0.7,1.8-1.9,1.8-3.6v-0.3c0-4-1.1-7.2-3.4-9.4c-2.3-2.2-5.6-3.3-10.1-3.3
	c-4.7,0-8.3,1-11,3.1c-2.7,2-4.5,4.3-5.5,6.8l-13-3c1.5-4.3,3.8-7.8,6.8-10.5c3-2.7,6.4-4.6,10.3-5.8c3.9-1.2,8-1.9,12.3-1.9
	c2.8,0,5.9,0.3,9,1c3.2,0.6,6.2,1.9,9,3.6c2.8,1.8,5.1,4.3,6.9,7.6c1.8,3.2,2.7,7.5,2.7,12.7V242h-13.5v-9.7h-0.6
	c-0.9,1.8-2.2,3.6-4,5.3c-1.8,1.7-4.1,3.2-6.9,4.3C699.9,243,696.6,243.6,692.6,243.6z M695.6,232.5c3.8,0,7.1-0.8,9.8-2.3
	c2.7-1.5,4.8-3.5,6.3-5.9c1.5-2.5,2.2-5.1,2.2-7.9v-9.2c-0.5,0.5-1.5,1-2.9,1.4c-1.4,0.4-3,0.8-4.8,1.1c-1.8,0.3-3.5,0.5-5.2,0.8
	c-1.7,0.2-3.1,0.4-4.3,0.6c-2.7,0.3-5.1,0.9-7.4,1.7c-2.2,0.8-4,2-5.3,3.5c-1.3,1.5-1.9,3.5-1.9,5.9c0,3.4,1.3,6,3.8,7.8
	C688.5,231.6,691.7,232.5,695.6,232.5z M738.1,242v-71.2h13.9V242H738.1z M745.1,159.8c-2.4,0-4.5-0.8-6.2-2.4
	c-1.7-1.6-2.5-3.6-2.5-5.8c0-2.3,0.9-4.2,2.5-5.8c1.7-1.6,3.8-2.5,6.2-2.5c2.4,0,4.5,0.8,6.2,2.5c1.7,1.6,2.6,3.6,2.6,5.8
	c0,2.3-0.9,4.2-2.6,5.8C749.5,159,747.5,159.8,745.1,159.8z M776.3,199.7V242h-13.9v-71.2h13.3v11.6h0.9c1.6-3.8,4.2-6.8,7.7-9.1
	c3.5-2.3,8-3.4,13.3-3.4c4.9,0,9.1,1,12.7,3.1c3.6,2,6.5,5,8.5,9c2,4,3,8.9,3,14.8V242H808v-43.6c0-5.2-1.3-9.2-4-12.1
	c-2.7-2.9-6.4-4.4-11.1-4.4c-3.2,0-6.1,0.7-8.6,2.1c-2.5,1.4-4.4,3.4-5.9,6.1C777,192.8,776.3,196,776.3,199.7z"/>
</svg>
