<svg width="966" height="400" viewBox="0 0 966 400" fill="none" xmlns="http://www.w3.org/2000/svg">
<path d="M237.603 212.512C236.059 212.512 234.615 213.105 233.538 214.183L211.813 235.908C209.572 238.149 209.572 241.797 211.812 244.039L222.898 255.125C223.974 256.203 225.418 256.796 226.962 256.796C228.506 256.796 229.95 256.203 231.026 255.125L252.755 233.396C253.831 232.317 254.426 230.875 254.426 229.33C254.426 227.786 253.831 226.343 252.755 225.266L241.669 214.182C240.591 213.105 239.148 212.512 237.603 212.512ZM226.962 266.871C222.727 266.871 218.753 265.229 215.773 262.248L204.688 251.162C198.52 244.992 198.52 234.953 204.69 228.784L226.415 207.058C229.394 204.079 233.369 202.437 237.603 202.437C241.838 202.437 245.811 204.078 248.791 207.057L259.878 218.141C262.859 221.121 264.499 225.095 264.5 229.33C264.5 233.565 262.859 237.538 259.879 240.519L238.15 262.248C235.17 265.229 231.196 266.871 226.962 266.871Z" fill="black"/>
<path d="M160.894 212.512C159.35 212.512 157.906 213.105 156.829 214.182L145.745 225.266C144.667 226.343 144.074 227.786 144.074 229.33C144.074 230.875 144.667 232.317 145.745 233.396L167.473 255.125C168.551 256.203 169.994 256.796 171.538 256.796C173.082 256.796 174.526 256.203 175.603 255.125L186.691 244.038C187.768 242.961 188.362 241.517 188.362 239.973C188.362 238.429 187.768 236.986 186.691 235.909L164.961 214.182C163.883 213.105 162.439 212.512 160.894 212.512ZM171.538 266.871C167.303 266.871 163.329 265.229 160.35 262.248L138.621 240.519C135.641 237.538 134 233.565 134 229.33C134 225.095 135.642 221.121 138.622 218.141L149.705 207.057C152.686 204.078 156.659 202.437 160.894 202.437C165.129 202.437 169.103 204.078 172.083 207.057L193.813 228.784C196.794 231.765 198.436 235.738 198.437 239.973C198.437 244.208 196.795 248.182 193.815 251.163L182.726 262.249C179.746 265.229 175.773 266.871 171.538 266.871Z" fill="black"/>
<path d="M171.538 146.442C169.994 146.442 168.551 147.035 167.474 148.113L145.744 169.843C144.667 170.92 144.074 172.363 144.074 173.908C144.074 175.452 144.667 176.895 145.745 177.973L156.829 189.058C157.906 190.135 159.35 190.728 160.894 190.728C162.438 190.728 163.882 190.134 164.959 189.058L186.687 167.327C188.928 165.086 188.927 161.438 186.687 159.197L175.603 148.113C174.526 147.035 173.082 146.442 171.538 146.442ZM160.894 200.803C156.659 200.803 152.686 199.162 149.706 196.182L138.621 185.097C135.641 182.116 134 178.143 134 173.908C133.999 169.673 135.641 165.7 138.621 162.719L160.35 140.989C163.329 138.009 167.303 136.367 171.538 136.367C175.773 136.367 179.746 138.009 182.727 140.989L193.81 152.073C199.979 158.243 199.98 168.28 193.811 174.45L172.083 196.181C169.103 199.161 165.129 200.803 160.894 200.803Z" fill="black"/>
<path d="M226.963 146.442C225.419 146.442 223.975 147.035 222.898 148.113L211.814 159.199C210.736 160.277 210.142 161.72 210.142 163.264C210.142 164.808 210.736 166.252 211.814 167.328L233.541 189.055C234.619 190.133 236.062 190.727 237.606 190.727C239.15 190.727 240.595 190.133 241.672 189.056L252.759 177.972C253.836 176.894 254.43 175.452 254.43 173.908C254.43 172.363 253.836 170.921 252.759 169.844L231.027 148.113C229.95 147.035 228.506 146.442 226.963 146.442ZM237.606 200.8C233.372 200.8 229.398 199.159 226.417 196.18L204.69 174.453C201.71 171.473 200.069 167.499 200.069 163.264C200.068 159.029 201.71 155.056 204.689 152.075L215.774 140.989C218.753 138.009 222.727 136.367 226.963 136.367C231.196 136.367 235.171 138.008 238.151 140.988L259.883 162.719C262.863 165.7 264.504 169.673 264.504 173.908C264.503 178.143 262.861 182.116 259.882 185.097L248.795 196.181C245.815 199.159 241.841 200.8 237.606 200.8Z" fill="black"/>
<path d="M172.35 168.301C168.811 168.301 165.932 171.18 165.932 174.72V228.517C165.932 232.056 168.811 234.936 172.35 234.936H226.148C229.687 234.936 232.566 232.056 232.566 228.517V174.72C232.566 171.18 229.687 168.301 226.148 168.301H172.35ZM226.148 245.01H172.35C163.256 245.01 155.858 237.611 155.858 228.517V174.72C155.858 165.626 163.256 158.226 172.35 158.226H226.148C235.242 158.226 242.641 165.626 242.641 174.72V228.517C242.641 237.611 235.242 245.01 226.148 245.01Z" fill="black"/>
<path d="M312.995 147.088H330.374L360.59 220.867H361.703L391.919 147.088H409.298V242H395.673V173.318H394.792L366.801 241.861H355.493L327.501 173.272H326.62V242H312.995V147.088ZM441.565 243.576C437.054 243.576 432.976 242.742 429.33 241.073C425.684 239.374 422.795 236.918 420.664 233.704C418.563 230.491 417.512 226.552 417.512 221.887C417.512 217.87 418.285 214.564 419.829 211.969C421.374 209.374 423.46 207.319 426.086 205.805C428.712 204.292 431.647 203.148 434.891 202.376C438.135 201.604 441.441 201.017 444.809 200.615C449.072 200.121 452.533 199.719 455.19 199.41C457.847 199.07 459.778 198.529 460.983 197.788C462.188 197.046 462.79 195.842 462.79 194.173V193.849C462.79 189.801 461.647 186.665 459.361 184.441C457.105 182.216 453.738 181.104 449.258 181.104C444.593 181.104 440.916 182.139 438.228 184.209C435.571 186.248 433.733 188.519 432.713 191.022L419.69 188.056C421.235 183.73 423.491 180.239 426.457 177.582C429.454 174.894 432.898 172.948 436.791 171.743C440.684 170.507 444.778 169.889 449.072 169.889C451.915 169.889 454.927 170.229 458.109 170.909C461.323 171.557 464.32 172.762 467.1 174.523C469.912 176.284 472.213 178.802 474.005 182.077C475.797 185.321 476.693 189.539 476.693 194.729V242H463.161V232.268H462.605C461.709 234.06 460.365 235.821 458.573 237.551C456.781 239.281 454.479 240.718 451.668 241.861C448.856 243.004 445.488 243.576 441.565 243.576ZM444.577 232.453C448.408 232.453 451.683 231.696 454.402 230.182C457.152 228.668 459.237 226.691 460.658 224.25C462.11 221.779 462.837 219.137 462.837 216.326V207.149C462.342 207.644 461.384 208.107 459.963 208.54C458.573 208.941 456.982 209.297 455.19 209.606C453.398 209.884 451.652 210.146 449.953 210.394C448.254 210.61 446.832 210.795 445.689 210.95C443.001 211.289 440.545 211.861 438.321 212.664C436.127 213.468 434.366 214.626 433.037 216.14C431.74 217.623 431.091 219.6 431.091 222.072C431.091 225.502 432.358 228.097 434.891 229.858C437.425 231.588 440.653 232.453 444.577 232.453ZM486.993 242V170.816H500.85V242H486.993ZM493.991 159.832C491.581 159.832 489.511 159.029 487.781 157.423C486.082 155.785 485.232 153.839 485.232 151.583C485.232 149.297 486.082 147.35 487.781 145.744C489.511 144.106 491.581 143.288 493.991 143.288C496.401 143.288 498.456 144.106 500.155 145.744C501.885 147.35 502.75 149.297 502.75 151.583C502.75 153.839 501.885 155.785 500.155 157.423C498.456 159.029 496.401 159.832 493.991 159.832ZM525.192 147.088V242H511.335V147.088H525.192ZM565.662 243.437C558.772 243.437 552.84 241.876 547.866 238.756C542.923 235.605 539.122 231.264 536.465 225.733C533.808 220.203 532.48 213.869 532.48 206.732C532.48 199.503 533.839 193.123 536.558 187.592C539.277 182.031 543.108 177.69 548.051 174.57C552.995 171.449 558.818 169.889 565.523 169.889C570.93 169.889 575.749 170.893 579.982 172.901C584.215 174.879 587.629 177.659 590.224 181.243C592.85 184.827 594.411 189.014 594.905 193.802H581.419C580.677 190.466 578.978 187.592 576.321 185.182C573.695 182.773 570.173 181.568 565.755 181.568C561.893 181.568 558.51 182.587 555.605 184.626C552.732 186.635 550.492 189.508 548.885 193.246C547.279 196.954 546.476 201.341 546.476 206.408C546.476 211.598 547.263 216.078 548.839 219.848C550.415 223.617 552.639 226.537 555.513 228.607C558.417 230.677 561.831 231.712 565.755 231.712C568.381 231.712 570.76 231.233 572.892 230.275C575.054 229.286 576.862 227.881 578.314 226.058C579.797 224.235 580.832 222.041 581.419 219.477H594.905C594.411 224.08 592.912 228.19 590.41 231.804C587.907 235.419 584.555 238.262 580.353 240.332C576.182 242.402 571.285 243.437 565.662 243.437ZM615.424 199.734V242H601.567V147.088H615.238V182.402H616.119C617.787 178.571 620.336 175.527 623.765 173.272C627.195 171.017 631.675 169.889 637.205 169.889C642.087 169.889 646.35 170.893 649.996 172.901C653.673 174.91 656.515 177.906 658.523 181.892C660.562 185.847 661.582 190.79 661.582 196.722V242H647.725V198.39C647.725 193.169 646.381 189.122 643.693 186.248C641.005 183.344 637.267 181.892 632.478 181.892C629.203 181.892 626.268 182.587 623.673 183.978C621.108 185.368 619.085 187.407 617.602 190.095C616.15 192.752 615.424 195.965 615.424 199.734ZM692.632 243.576C688.122 243.576 684.043 242.742 680.398 241.073C676.752 239.374 673.863 236.918 671.731 233.704C669.63 230.491 668.58 226.552 668.58 221.887C668.58 217.87 669.352 214.564 670.897 211.969C672.442 209.374 674.527 207.319 677.154 205.805C679.78 204.292 682.715 203.148 685.959 202.376C689.203 201.604 692.509 201.017 695.876 200.615C700.14 200.121 703.6 199.719 706.258 199.41C708.915 199.07 710.846 198.529 712.05 197.788C713.255 197.046 713.858 195.842 713.858 194.173V193.849C713.858 189.801 712.715 186.665 710.428 184.441C708.173 182.216 704.805 181.104 700.326 181.104C695.66 181.104 691.984 182.139 689.296 184.209C686.639 186.248 684.8 188.519 683.781 191.022L670.758 188.056C672.303 183.73 674.558 180.239 677.524 177.582C680.521 174.894 683.966 172.948 687.859 171.743C691.752 170.507 695.846 169.889 700.14 169.889C702.983 169.889 705.995 170.229 709.177 170.909C712.39 171.557 715.387 172.762 718.168 174.523C720.979 176.284 723.281 178.802 725.073 182.077C726.865 185.321 727.761 189.539 727.761 194.729V242H714.229V232.268H713.673C712.777 234.06 711.433 235.821 709.641 237.551C707.849 239.281 705.547 240.718 702.735 241.861C699.924 243.004 696.556 243.576 692.632 243.576ZM695.645 232.453C699.476 232.453 702.751 231.696 705.47 230.182C708.219 228.668 710.305 226.691 711.726 224.25C713.178 221.779 713.904 219.137 713.904 216.326V207.149C713.41 207.644 712.452 208.107 711.031 208.54C709.641 208.941 708.049 209.297 706.258 209.606C704.466 209.884 702.72 210.146 701.021 210.394C699.321 210.61 697.9 210.795 696.757 210.95C694.069 211.289 691.613 211.861 689.388 212.664C687.195 213.468 685.434 214.626 684.105 216.14C682.808 217.623 682.159 219.6 682.159 222.072C682.159 225.502 683.425 228.097 685.959 229.858C688.492 231.588 691.721 232.453 695.645 232.453ZM738.061 242V170.816H751.918V242H738.061ZM745.059 159.832C742.649 159.832 740.579 159.029 738.849 157.423C737.15 155.785 736.3 153.839 736.3 151.583C736.3 149.297 737.15 147.35 738.849 145.744C740.579 144.106 742.649 143.288 745.059 143.288C747.469 143.288 749.523 144.106 751.223 145.744C752.953 147.35 753.818 149.297 753.818 151.583C753.818 153.839 752.953 155.785 751.223 157.423C749.523 159.029 747.469 159.832 745.059 159.832ZM776.26 199.734V242H762.403V170.816H775.704V182.402H776.584C778.222 178.633 780.786 175.605 784.277 173.318C787.799 171.032 792.233 169.889 797.578 169.889C802.429 169.889 806.677 170.909 810.323 172.948C813.968 174.956 816.795 177.953 818.804 181.938C820.812 185.924 821.816 190.852 821.816 196.722V242H807.959V198.39C807.959 193.231 806.615 189.199 803.927 186.295C801.239 183.36 797.547 181.892 792.851 181.892C789.638 181.892 786.78 182.587 784.277 183.978C781.806 185.368 779.844 187.407 778.392 190.095C776.97 192.752 776.26 195.965 776.26 199.734Z" fill="black"/>
</svg>
